<?xml version="1.0" standalone="no"?>
<!DOCTYPE svg PUBLIC "-//W3C//DTD SVG 20010904//EN"
 "http://www.w3.org/TR/2001/REC-SVG-20010904/DTD/svg10.dtd">
<svg version="1.0" xmlns="http://www.w3.org/2000/svg"
 width="512.000000pt" height="512.000000pt" viewBox="0 0 512.000000 512.000000"
 preserveAspectRatio="xMidYMid meet">
<metadata>
Created by potrace 1.11, written by Peter Selinger 2001-2013
</metadata>
<g transform="translate(0.000000,512.000000) scale(0.100000,-0.100000)"
fill="#000000" stroke="none">
<path d="M2369 5096 c-2 -2 -35 -6 -74 -9 -189 -15 -534 -100 -680 -166 -11
-5 -49 -22 -85 -37 -192 -83 -438 -236 -606 -378 -79 -67 -260 -249 -309 -311
-22 -27 -43 -52 -46 -55 -9 -7 -110 -149 -140 -195 -82 -126 -177 -308 -227
-435 -62 -157 -131 -404 -148 -527 -3 -26 -7 -50 -9 -53 -18 -30 -27 -482 -13
-630 11 -107 37 -256 64 -365 145 -579 505 -1101 1002 -1453 55 -40 106 -72
111 -72 6 0 11 -4 11 -10 0 -5 5 -10 11 -10 6 0 23 -8 37 -19 47 -33 243 -128
362 -176 101 -40 281 -97 348 -110 13 -2 31 -6 40 -9 9 -3 33 -8 52 -11 19 -3
60 -10 90 -15 149 -26 509 -35 665 -17 162 19 225 30 340 58 344 85 608 212
935 446 13 10 69 57 125 104 259 221 486 520 633 831 61 130 145 364 167 467
63 292 70 351 70 621 0 230 -7 315 -40 485 -19 93 -20 100 -39 170 -9 33 -19
68 -21 78 -14 62 -90 256 -146 372 -213 444 -577 838 -1009 1091 -286 168
-589 270 -975 329 -45 7 -490 17 -496 11z"/>
</g>
</svg>
