<?xml version="1.0" standalone="no"?>
<!DOCTYPE svg PUBLIC "-//W3C//DTD SVG 20010904//EN"
 "http://www.w3.org/TR/2001/REC-SVG-20010904/DTD/svg10.dtd">
<svg version="1.0" xmlns="http://www.w3.org/2000/svg"
 width="200.000000pt" height="200.000000pt" viewBox="0 0 200.000000 200.000000"
 preserveAspectRatio="xMidYMid meet">
<metadata>
Created by potrace 1.11, written by Peter Selinger 2001-2013
</metadata>
<g transform="translate(0.000000,200.000000) scale(0.100000,-0.100000)"
fill="#000000" stroke="none">
<path d="M849 1771 c-20 -4 -51 -17 -70 -28 -19 -11 -46 -23 -60 -27 -15 -3
-40 -21 -56 -39 -16 -18 -45 -43 -66 -56 -27 -16 -37 -30 -37 -48 0 -14 -13
-42 -29 -62 -55 -70 -61 -91 -61 -217 0 -64 5 -144 11 -178 10 -53 9 -66 -5
-93 -22 -43 -21 -59 15 -187 26 -95 36 -115 65 -141 23 -21 34 -39 34 -58 0
-15 11 -59 25 -98 28 -81 34 -151 16 -173 -8 -9 -52 -28 -100 -42 -47 -14
-186 -62 -308 -107 l-223 -80 0 -68 0 -69 1000 0 1000 0 0 69 0 70 -117 37
c-139 43 -336 118 -445 168 -76 34 -78 36 -78 71 0 59 69 257 97 279 34 26 48
59 72 168 25 116 26 136 6 158 -13 14 -13 23 -4 46 6 16 13 61 16 99 11 166 6
219 -32 295 -54 109 -68 135 -76 138 -5 2 -31 25 -57 51 -29 28 -70 56 -98 67
-27 10 -66 28 -86 41 -35 21 -48 23 -175 22 -76 -1 -154 -4 -174 -8z"/>
</g>
</svg>
